TITLE ""
FILE "LR_black_phrase_E_S01.mp3" MP3
  TRACK 01 AUDIO
    TITLE "LR_black_phrase_E_S01_001"
    INDEX 01 00:00:00
  TRACK 02 AUDIO
    TITLE "LR_black_phrase_E_S01_002"
    INDEX 01 00:00:14
  TRACK 03 AUDIO
    TITLE "LR_black_phrase_E_S01_003"
    INDEX 01 00:01:18
  TRACK 04 AUDIO
    TITLE "LR_black_phrase_E_S01_004"
    INDEX 01 00:01:49
  TRACK 05 AUDIO
    TITLE "LR_black_phrase_E_S01_005"
    INDEX 01 00:03:38
  TRACK 06 AUDIO
    TITLE "LR_black_phrase_E_S01_006"
    INDEX 01 00:04:22
  TRACK 07 AUDIO
    TITLE "LR_black_phrase_E_S01_007"
    INDEX 01 00:06:09
  TRACK 08 AUDIO
    TITLE "LR_black_phrase_E_S01_008"
    INDEX 01 00:07:12
  TRACK 09 AUDIO
    TITLE "LR_black_phrase_E_S01_009"
    INDEX 01 00:08:27
  TRACK 10 AUDIO
    TITLE "LR_black_phrase_E_S01_010"
    INDEX 01 00:08:61
  TRACK 11 AUDIO
    TITLE "LR_black_phrase_E_S01_011"
    INDEX 01 00:10:38
  TRACK 12 AUDIO
    TITLE "LR_black_phrase_E_S01_012"
    INDEX 01 00:11:18
  TRACK 13 AUDIO
    TITLE "LR_black_phrase_E_S01_013"
    INDEX 01 00:12:74
  TRACK 14 AUDIO
    TITLE "LR_black_phrase_E_S01_014"
    INDEX 01 00:14:03
  TRACK 15 AUDIO
    TITLE "LR_black_phrase_E_S01_015"
    INDEX 01 00:15:39
  TRACK 16 AUDIO
    TITLE "LR_black_phrase_E_S01_016"
    INDEX 01 00:15:65
  TRACK 17 AUDIO
    TITLE "LR_black_phrase_E_S01_017"
    INDEX 01 00:18:00
  TRACK 18 AUDIO
    TITLE "LR_black_phrase_E_S01_018"
    INDEX 01 00:18:47
  TRACK 19 AUDIO
    TITLE "LR_black_phrase_E_S01_019"
    INDEX 01 00:20:58
  TRACK 20 AUDIO
    TITLE "LR_black_phrase_E_S01_020"
    INDEX 01 00:21:58
  TRACK 21 AUDIO
    TITLE "LR_black_phrase_E_S01_021"
    INDEX 01 00:23:00
  TRACK 22 AUDIO
    TITLE "LR_black_phrase_E_S01_022"
    INDEX 01 00:23:27
  TRACK 23 AUDIO
    TITLE "LR_black_phrase_E_S01_023"
    INDEX 01 00:25:42
  TRACK 24 AUDIO
    TITLE "LR_black_phrase_E_S01_024"
    INDEX 01 00:26:21
  TRACK 25 AUDIO
    TITLE "LR_black_phrase_E_S01_025"
    INDEX 01 00:28:36
  TRACK 26 AUDIO
    TITLE "LR_black_phrase_E_S01_026"
    INDEX 01 00:29:43
  TRACK 27 AUDIO
    TITLE "LR_black_phrase_E_S01_027"
    INDEX 01 00:30:60
  TRACK 28 AUDIO
    TITLE "LR_black_phrase_E_S01_028"
    INDEX 01 00:31:17
  TRACK 29 AUDIO
    TITLE "LR_black_phrase_E_S01_029"
    INDEX 01 00:33:23
  TRACK 30 AUDIO
    TITLE "LR_black_phrase_E_S01_030"
    INDEX 01 00:34:01
  TRACK 31 AUDIO
    TITLE "LR_black_phrase_E_S01_031"
    INDEX 01 00:36:08
  TRACK 32 AUDIO
    TITLE "LR_black_phrase_E_S01_032"
    INDEX 01 00:37:11
  TRACK 33 AUDIO
    TITLE "LR_black_phrase_E_S01_033"
    INDEX 01 00:38:27
  TRACK 34 AUDIO
    TITLE "LR_black_phrase_E_S01_034"
    INDEX 01 00:38:54
  TRACK 35 AUDIO
    TITLE "LR_black_phrase_E_S01_035"
    INDEX 01 00:40:63
  TRACK 36 AUDIO
    TITLE "LR_black_phrase_E_S01_036"
    INDEX 01 00:41:43
  TRACK 37 AUDIO
    TITLE "LR_black_phrase_E_S01_037"
    INDEX 01 00:43:49
  TRACK 38 AUDIO
    TITLE "LR_black_phrase_E_S01_038"
    INDEX 01 00:44:49
  TRACK 39 AUDIO
    TITLE "LR_black_phrase_E_S01_039"
    INDEX 01 00:46:01
  TRACK 40 AUDIO
    TITLE "LR_black_phrase_E_S01_040"
    INDEX 01 00:46:32
  TRACK 41 AUDIO
    TITLE "LR_black_phrase_E_S01_041"
    INDEX 01 00:48:27
  TRACK 42 AUDIO
    TITLE "LR_black_phrase_E_S01_042"
    INDEX 01 00:49:11
  TRACK 43 AUDIO
    TITLE "LR_black_phrase_E_S01_043"
    INDEX 01 00:51:06
  TRACK 44 AUDIO
    TITLE "LR_black_phrase_E_S01_044"
    INDEX 01 00:52:09
  TRACK 45 AUDIO
    TITLE "LR_black_phrase_E_S01_045"
    INDEX 01 00:53:50
  TRACK 46 AUDIO
    TITLE "LR_black_phrase_E_S01_046"
    INDEX 01 00:54:06
  TRACK 47 AUDIO
    TITLE "LR_black_phrase_E_S01_047"
    INDEX 01 00:57:49
  TRACK 48 AUDIO
    TITLE "LR_black_phrase_E_S01_048"
    INDEX 01 00:58:27
  TRACK 49 AUDIO
    TITLE "LR_black_phrase_E_S01_049"
    INDEX 01 01:01:73
  TRACK 50 AUDIO
    TITLE "LR_black_phrase_E_S01_050"
    INDEX 01 01:02:74
  TRACK 51 AUDIO
    TITLE "LR_black_phrase_E_S01_051"
    INDEX 01 01:04:20
  TRACK 52 AUDIO
    TITLE "LR_black_phrase_E_S01_052"
    INDEX 01 01:04:51
  TRACK 53 AUDIO
    TITLE "LR_black_phrase_E_S01_053"
    INDEX 01 01:07:60
  TRACK 54 AUDIO
    TITLE "LR_black_phrase_E_S01_054"
    INDEX 01 01:08:39
  TRACK 55 AUDIO
    TITLE "LR_black_phrase_E_S01_055"
    INDEX 01 01:11:48
  TRACK 56 AUDIO
    TITLE "LR_black_phrase_E_S01_056"
    INDEX 01 01:12:51
  TRACK 57 AUDIO
    TITLE "LR_black_phrase_E_S01_057"
    INDEX 01 01:14:03
  TRACK 58 AUDIO
    TITLE "LR_black_phrase_E_S01_058"
    INDEX 01 01:14:32
  TRACK 59 AUDIO
    TITLE "LR_black_phrase_E_S01_059"
    INDEX 01 01:17:17
  TRACK 60 AUDIO
    TITLE "LR_black_phrase_E_S01_060"
    INDEX 01 01:18:01
  TRACK 61 AUDIO
    TITLE "LR_black_phrase_E_S01_061"
    INDEX 01 01:20:56
  TRACK 62 AUDIO
    TITLE "LR_black_phrase_E_S01_062"
    INDEX 01 01:21:64
  TRACK 63 AUDIO
    TITLE "LR_black_phrase_E_S01_063"
    INDEX 01 01:23:16
  TRACK 64 AUDIO
    TITLE "LR_black_phrase_E_S01_064"
    INDEX 01 01:23:41
  TRACK 65 AUDIO
    TITLE "LR_black_phrase_E_S01_065"
    INDEX 01 01:26:53
  TRACK 66 AUDIO
    TITLE "LR_black_phrase_E_S01_066"
    INDEX 01 01:27:31
  TRACK 67 AUDIO
    TITLE "LR_black_phrase_E_S01_067"
    INDEX 01 01:30:39
  TRACK 68 AUDIO
    TITLE "LR_black_phrase_E_S01_068"
    INDEX 01 01:31:42
  TRACK 69 AUDIO
    TITLE "LR_black_phrase_E_S01_069"
    INDEX 01 01:32:58
  TRACK 70 AUDIO
    TITLE "LR_black_phrase_E_S01_070"
    INDEX 01 01:33:12
  TRACK 71 AUDIO
    TITLE "LR_black_phrase_E_S01_071"
    INDEX 01 01:35:54
  TRACK 72 AUDIO
    TITLE "LR_black_phrase_E_S01_072"
    INDEX 01 01:36:34
  TRACK 73 AUDIO
    TITLE "LR_black_phrase_E_S01_073"
    INDEX 01 01:39:03
  TRACK 74 AUDIO
    TITLE "LR_black_phrase_E_S01_074"
    INDEX 01 01:40:06
  TRACK 75 AUDIO
    TITLE "LR_black_phrase_E_S01_075"
    INDEX 01 01:41:37
  TRACK 76 AUDIO
    TITLE "LR_black_phrase_E_S01_076"
    INDEX 01 01:41:66
  TRACK 77 AUDIO
    TITLE "LR_black_phrase_E_S01_077"
    INDEX 01 01:44:69
  TRACK 78 AUDIO
    TITLE "LR_black_phrase_E_S01_078"
    INDEX 01 01:45:45
  TRACK 79 AUDIO
    TITLE "LR_black_phrase_E_S01_079"
    INDEX 01 01:48:45
  TRACK 80 AUDIO
    TITLE "LR_black_phrase_E_S01_080"
    INDEX 01 01:49:48
  TRACK 81 AUDIO
    TITLE "LR_black_phrase_E_S01_081"
    INDEX 01 01:51:24
  TRACK 82 AUDIO
    TITLE "LR_black_phrase_E_S01_082"
    INDEX 01 01:51:55
  TRACK 83 AUDIO
    TITLE "LR_black_phrase_E_S01_083"
    INDEX 01 01:54:08
  TRACK 84 AUDIO
    TITLE "LR_black_phrase_E_S01_084"
    INDEX 01 01:54:63
  TRACK 85 AUDIO
    TITLE "LR_black_phrase_E_S01_085"
    INDEX 01 01:57:14
  TRACK 86 AUDIO
    TITLE "LR_black_phrase_E_S01_086"
    INDEX 01 01:58:20
  TRACK 87 AUDIO
    TITLE "LR_black_phrase_E_S01_087"
    INDEX 01 01:59:35
  TRACK 88 AUDIO
    TITLE "LR_black_phrase_E_S01_088"
    INDEX 01 01:59:66
  TRACK 89 AUDIO
    TITLE "LR_black_phrase_E_S01_089"
    INDEX 01 02:01:65
  TRACK 90 AUDIO
    TITLE "LR_black_phrase_E_S01_090"
    INDEX 01 02:02:47
  TRACK 91 AUDIO
    TITLE "LR_black_phrase_E_S01_091"
    INDEX 01 02:04:46
  TRACK 92 AUDIO
    TITLE "LR_black_phrase_E_S01_092"
    INDEX 01 02:05:49
  TRACK 93 AUDIO
    TITLE "LR_black_phrase_E_S01_093"
    INDEX 01 02:07:09
  TRACK 94 AUDIO
    TITLE "LR_black_phrase_E_S01_094"
    INDEX 01 02:07:40
  TRACK 95 AUDIO
    TITLE "LR_black_phrase_E_S01_095"
    INDEX 01 02:10:60
  TRACK 96 AUDIO
    TITLE "LR_black_phrase_E_S01_096"
    INDEX 01 02:11:40
  TRACK 97 AUDIO
    TITLE "LR_black_phrase_E_S01_097"
    INDEX 01 02:14:60
  TRACK 98 AUDIO
    TITLE "LR_black_phrase_E_S01_098"
    INDEX 01 02:15:67
  TRACK 99 AUDIO
    TITLE "LR_black_phrase_E_S01_099"
    INDEX 01 02:17:09
  TRACK 100 AUDIO
    TITLE "LR_black_phrase_E_S01_100"
    INDEX 01 02:17:39
  TRACK 101 AUDIO
    TITLE "LR_black_phrase_E_S01_101"
    INDEX 01 02:19:55
  TRACK 102 AUDIO
    TITLE "LR_black_phrase_E_S01_102"
    INDEX 01 02:20:37
  TRACK 103 AUDIO
    TITLE "LR_black_phrase_E_S01_103"
    INDEX 01 02:22:54
  TRACK 104 AUDIO
    TITLE "LR_black_phrase_E_S01_104"
    INDEX 01 02:23:57
  TRACK 105 AUDIO
    TITLE "LR_black_phrase_E_S01_105"
    INDEX 01 02:25:09
  TRACK 106 AUDIO
    TITLE "LR_black_phrase_E_S01_106"
    INDEX 01 02:25:42
  TRACK 107 AUDIO
    TITLE "LR_black_phrase_E_S01_107"
    INDEX 01 02:27:39
  TRACK 108 AUDIO
    TITLE "LR_black_phrase_E_S01_108"
    INDEX 01 02:28:19
  TRACK 109 AUDIO
    TITLE "LR_black_phrase_E_S01_109"
    INDEX 01 02:30:20
  TRACK 110 AUDIO
    TITLE "LR_black_phrase_E_S01_110"
    INDEX 01 02:31:25
  TRACK 111 AUDIO
    TITLE "LR_black_phrase_E_S01_111"
    INDEX 01 02:32:42
  TRACK 112 AUDIO
    TITLE "LR_black_phrase_E_S01_112"
    INDEX 01 02:32:70
  TRACK 113 AUDIO
    TITLE "LR_black_phrase_E_S01_113"
    INDEX 01 02:35:17
  TRACK 114 AUDIO
    TITLE "LR_black_phrase_E_S01_114"
    INDEX 01 02:35:70
  TRACK 115 AUDIO
    TITLE "LR_black_phrase_E_S01_115"
    INDEX 01 02:38:15
  TRACK 116 AUDIO
    TITLE "LR_black_phrase_E_S01_116"
    INDEX 01 02:39:19
  TRACK 117 AUDIO
    TITLE "LR_black_phrase_E_S01_117"
    INDEX 01 02:40:40
  TRACK 118 AUDIO
    TITLE "LR_black_phrase_E_S01_118"
    INDEX 01 02:40:57
  TRACK 119 AUDIO
    TITLE "LR_black_phrase_E_S01_119"
    INDEX 01 02:43:18
  TRACK 120 AUDIO
    TITLE "LR_black_phrase_E_S01_120"
    INDEX 01 02:43:65
  TRACK 121 AUDIO
    TITLE "LR_black_phrase_E_S01_121"
    INDEX 01 02:46:25
